<svg viewBox="0 0 100 100" xmlns="http://www.w3.org/2000/svg">
  <!-- Livro aberto -->
  <g id="book">
    <!-- Lombada do livro -->
    <path d="M 30 15 L 30 85 Q 50 90 70 85 L 70 15 Z" fill="#8b6f47" stroke="#5c4a2a" stroke-width="1.5"/>
    
    <!-- P치gina esquerda -->
    <path d="M 20 20 L 35 18 L 35 80 L 20 82 Z" fill="#f8f4ef" stroke="#8b6f47" stroke-width="1.5"/>
    
    <!-- P치gina direita -->
    <path d="M 65 18 L 80 20 L 80 82 L 65 80 Z" fill="#e8dcc4" stroke="#8b6f47" stroke-width="1.5"/>
    
    <!-- Linhas de texto na p치gina esquerda -->
    <line x1="24" y1="30" x2="32" y2="30" stroke="#d4a574" stroke-width="0.8" opacity="0.6"/>
    <line x1="24" y1="36" x2="32" y2="36" stroke="#d4a574" stroke-width="0.8" opacity="0.6"/>
    <line x1="24" y1="42" x2="32" y2="42" stroke="#d4a574" stroke-width="0.8" opacity="0.6"/>
    <line x1="24" y1="48" x2="32" y2="48" stroke="#d4a574" stroke-width="0.8" opacity="0.6"/>
    <line x1="24" y1="54" x2="30" y2="54" stroke="#d4a574" stroke-width="0.8" opacity="0.6"/>
    <line x1="24" y1="60" x2="32" y2="60" stroke="#d4a574" stroke-width="0.8" opacity="0.6"/>
    <line x1="24" y1="66" x2="32" y2="66" stroke="#d4a574" stroke-width="0.8" opacity="0.6"/>
    <line x1="24" y1="72" x2="31" y2="72" stroke="#d4a574" stroke-width="0.8" opacity="0.6"/>
    
    <!-- Linhas de texto na p치gina direita -->
    <line x1="68" y1="30" x2="76" y2="30" stroke="#8b6f47" stroke-width="0.8" opacity="0.5"/>
    <line x1="68" y1="36" x2="76" y2="36" stroke="#8b6f47" stroke-width="0.8" opacity="0.5"/>
    <line x1="68" y1="42" x2="76" y2="42" stroke="#8b6f47" stroke-width="0.8" opacity="0.5"/>
    <line x1="68" y1="48" x2="76" y2="48" stroke="#8b6f47" stroke-width="0.8" opacity="0.5"/>
    <line x1="68" y1="54" x2="74" y2="54" stroke="#8b6f47" stroke-width="0.8" opacity="0.5"/>
    <line x1="68" y1="60" x2="76" y2="60" stroke="#8b6f47" stroke-width="0.8" opacity="0.5"/>
    <line x1="68" y1="66" x2="76" y2="66" stroke="#8b6f47" stroke-width="0.8" opacity="0.5"/>
    <line x1="68" y1="72" x2="75" y2="72" stroke="#8b6f47" stroke-width="0.8" opacity="0.5"/>
  </g>
</svg>